<svg class="erd" xmlns="http://www.w3.org/2000/svg" viewBox="0 0 608 458" width="608" height="458" role="img" aria-label="Entity-relationship diagram: role, permission, role_permission, user_role"><title>Entity-relationship diagram: role, permission, role_permission, user_role</title><style>svg{font:12px ui-monospace,SFMono-Regular,Menlo,Consolas,monospace}.bg{fill:#fbfaf7}.bx{fill:#ffffff;stroke:#1d2430;stroke-width:1.2}.hd{fill:#e2ddd3}.stub .bx{stroke:#6b7280;stroke-dasharray:4 3}.stub .hd{fill:none}.lbl{paint-order:stroke;stroke:#fbfaf7;stroke-width:3}.ttl{font-weight:700;fill:#1d2430}.col{fill:#1d2430}.typ,.lbl{fill:#6b7280;font-size:11px}.key{fill:#1f5f8b;font-weight:700;font-size:10px}.ln,.end path{fill:none;stroke:#1d2430;stroke-width:1.2}.end circle{fill:#ffffff;stroke:#1d2430;stroke-width:1.2}</style><rect class="bg" width="608" height="458"/><g class="tbl" id="erd-role"><rect class="bx" x="24" y="174" width="186" height="92" rx="5"/><rect class="hd" x="24" y="174" width="186" height="28" rx="5"/><text class="ttl" x="117" y="192" text-anchor="middle">role</text><text class="col" x="34" y="215">id <tspan class="key">PK</tspan></text><text class="typ" x="200" y="215" text-anchor="end">uuid</text><text class="col" x="34" y="233">tenant_id <tspan class="key">FK</tspan></text><text class="typ" x="200" y="233" text-anchor="end">uuid</text><text class="col" x="34" y="251">name</text><text class="typ" x="200" y="251" text-anchor="end">varchar(100)</text></g><g class="tbl" id="erd-permission"><rect class="bx" x="24" y="24" width="186" height="74" rx="5"/><rect class="hd" x="24" y="24" width="186" height="28" rx="5"/><text class="ttl" x="117" y="42" text-anchor="middle">permission</text><text class="col" x="34" y="65">id <tspan class="key">PK</tspan></text><text class="typ" x="200" y="65" text-anchor="end">uuid</text><text class="col" x="34" y="83">code</text><text class="typ" x="200" y="83" text-anchor="end">varchar(100)</text></g><g class="tbl" id="erd-role_permission"><rect class="bx" x="24" y="342" width="193" height="74" rx="5"/><rect class="hd" x="24" y="342" width="193" height="28" rx="5"/><text class="ttl" x="120.5" y="360" text-anchor="middle">role_permission</text><text class="col" x="34" y="383">role_id <tspan class="key">PK</tspan></text><text class="typ" x="207" y="383" text-anchor="end">uuid</text><text class="col" x="34" y="401">permission_id <tspan class="key">PK</tspan></text><text class="typ" x="207" y="401" text-anchor="end">uuid</text></g><g class="tbl" id="erd-user_role"><rect class="bx" x="265" y="342" width="222" height="92" rx="5"/><rect class="hd" x="265" y="342" width="222" height="28" rx="5"/><text class="ttl" x="376" y="360" text-anchor="middle">user_role</text><text class="col" x="275" y="383">user_id <tspan class="key">FK</tspan></text><text class="typ" x="477" y="383" text-anchor="end">uuid</text><text class="col" x="275" y="401">role_id <tspan class="key">FK</tspan></text><text class="typ" x="477" y="401" text-anchor="end">uuid</text><text class="col" x="275" y="419">granted_at</text><text class="typ" x="477" y="419" text-anchor="end">timestamptz</text></g><g class="tbl stub" id="erd-tenant"><rect class="bx" x="258" y="24" width="120" height="28" rx="5"/><rect class="hd" x="258" y="24" width="120" height="28" rx="5"/><text class="ttl" x="318" y="42" text-anchor="middle">tenant</text></g><g class="tbl stub" id="erd-users"><rect class="bx" x="426" y="24" width="120" height="28" rx="5"/><rect class="hd" x="426" y="24" width="120" height="28" rx="5"/><text class="ttl" x="486" y="42" text-anchor="middle">users</text></g><g class="edge" data-fk="role.tenant_id" data-ends="one many"><path class="ln" d="M117,174 V136 H278 V52"/><g class="end c-many" transform="translate(117,174) rotate(-90)"><path d="M0,-6 L12,0 M0,0 L12,0 M0,6 L12,0"/></g><g class="end p-one" transform="translate(278,52) rotate(90)"><path d="M8,-6 L8,6"/></g></g><g class="edge" data-fk="role_permission.role_id" data-ends="one many"><path class="ln" d="M88.33333333333333,342 V304 H55 V266"/><g class="end c-many" transform="translate(88.33333333333333,342) rotate(-90)"><path d="M0,-6 L12,0 M0,0 L12,0 M0,6 L12,0"/></g><g class="end p-one" transform="translate(55,266) rotate(90)"><path d="M8,-6 L8,6"/></g></g><g class="edge" data-fk="role_permission.permission_id" data-ends="one many"><path class="ln" d="M152.66666666666666,342 V304 H572 V136 H55 V98"/><g class="end c-many" transform="translate(152.66666666666666,342) rotate(-90)"><path d="M0,-6 L12,0 M0,0 L12,0 M0,6 L12,0"/></g><g class="end p-one" transform="translate(55,98) rotate(90)"><path d="M8,-6 L8,6"/></g></g><g class="edge" data-fk="user_role.user_id" data-ends="one many"><path class="ln" d="M339,342 V304 H584 V136 H446 V52"/><g class="end c-many" transform="translate(339,342) rotate(-90)"><path d="M0,-6 L12,0 M0,0 L12,0 M0,6 L12,0"/></g><g class="end p-one" transform="translate(446,52) rotate(90)"><path d="M8,-6 L8,6"/></g></g><g class="edge" data-fk="user_role.role_id" data-ends="one many"><path class="ln" d="M413,342 V304 H86 V266"/><g class="end c-many" transform="translate(413,342) rotate(-90)"><path d="M0,-6 L12,0 M0,0 L12,0 M0,6 L12,0"/></g><g class="end p-one" transform="translate(86,266) rotate(90)"><path d="M8,-6 L8,6"/></g></g><g class="lbls"><text class="lbl" x="122" y="154">tenant_id</text><text class="lbl" x="93.33333333333333" y="322">role_id</text><text class="lbl" x="157.66666666666666" y="322">permission_id</text><text class="lbl" x="344" y="322">user_id</text><text class="lbl" x="418" y="322">role_id</text></g></svg>
