<svg class="erd" xmlns="http://www.w3.org/2000/svg" viewBox="0 0 2511 932" width="2511" height="932" role="img" aria-label="Entity-relationship diagram: provider, tenant, tenant_settings, tenant_auth_config, users, sessions, role, permission, role_permission, user_role, github_app_config, github_app_installation, webhook_delivery, service_request, deployment, approval_request, audit_event, invoice_line, legacy_import_staging"><title>Entity-relationship diagram: provider, tenant, tenant_settings, tenant_auth_config, users, sessions, role, permission, role_permission, user_role, github_app_config, github_app_installation, webhook_delivery, service_request, deployment, approval_request, audit_event, invoice_line, legacy_import_staging</title><style>svg{font:12px ui-monospace,SFMono-Regular,Menlo,Consolas,monospace}.bg{fill:#fbfaf7}.bx{fill:#ffffff;stroke:#1d2430;stroke-width:1.2}.hd{fill:#e2ddd3}.stub .bx{stroke:#6b7280;stroke-dasharray:4 3}.stub .hd{fill:none}.ttl{font-weight:700;fill:#1d2430}.col{fill:#1d2430}.typ,.lbl{fill:#6b7280;font-size:11px}.key{fill:#1f5f8b;font-weight:700;font-size:10px}.ln,.end path{fill:none;stroke:#1d2430;stroke-width:1.2}.end circle{fill:#ffffff;stroke:#1d2430;stroke-width:1.2}</style><rect class="bg" width="2511" height="932"/><g class="tbl" id="erd-provider"><rect class="bx" x="492" y="24" width="222" height="92" rx="5"/><rect class="hd" x="492" y="24" width="222" height="28" rx="5"/><text class="ttl" x="603" y="42" text-anchor="middle">provider</text><text class="col" x="502" y="65">id <tspan class="key">PK</tspan></text><text class="typ" x="704" y="65" text-anchor="end">uuid</text><text class="col" x="502" y="83">name</text><text class="typ" x="704" y="83" text-anchor="end">varchar(255)</text><text class="col" x="502" y="101">created_at</text><text class="typ" x="704" y="101" text-anchor="end">timestamptz</text></g><g class="tbl" id="erd-tenant"><rect class="bx" x="24" y="192" width="244" height="164" rx="5"/><rect class="hd" x="24" y="192" width="244" height="28" rx="5"/><text class="ttl" x="146" y="210" text-anchor="middle">tenant</text><text class="col" x="34" y="233">id <tspan class="key">PK</tspan></text><text class="typ" x="258" y="233" text-anchor="end">uuid</text><text class="col" x="34" y="251">provider_id <tspan class="key">FK</tspan></text><text class="typ" x="258" y="251" text-anchor="end">uuid</text><text class="col" x="34" y="269">slug</text><text class="typ" x="258" y="269" text-anchor="end">varchar(63)</text><text class="col" x="34" y="287">display_name</text><text class="typ" x="258" y="287" text-anchor="end">varchar(255)</text><text class="col" x="34" y="305">status</text><text class="typ" x="258" y="305" text-anchor="end">varchar(20)</text><text class="col" x="34" y="323">created_at</text><text class="typ" x="258" y="323" text-anchor="end">timestamptz</text><text class="col" x="34" y="341">updated_at</text><text class="typ" x="258" y="341" text-anchor="end">timestamptz</text></g><g class="tbl" id="erd-tenant_settings"><rect class="bx" x="1957" y="432" width="222" height="128" rx="5"/><rect class="hd" x="1957" y="432" width="222" height="28" rx="5"/><text class="ttl" x="2068" y="450" text-anchor="middle">tenant_settings</text><text class="col" x="1967" y="473">id <tspan class="key">PK</tspan></text><text class="typ" x="2169" y="473" text-anchor="end">uuid</text><text class="col" x="1967" y="491">tenant_id <tspan class="key">FK</tspan></text><text class="typ" x="2169" y="491" text-anchor="end">uuid</text><text class="col" x="1967" y="509">timezone</text><text class="typ" x="2169" y="509" text-anchor="end">varchar(64)</text><text class="col" x="1967" y="527">locale</text><text class="typ" x="2169" y="527" text-anchor="end">varchar(16)</text><text class="col" x="1967" y="545">updated_at</text><text class="typ" x="2169" y="545" text-anchor="end">timestamptz</text></g><g class="tbl" id="erd-tenant_auth_config"><rect class="bx" x="1687" y="432" width="222" height="110" rx="5"/><rect class="hd" x="1687" y="432" width="222" height="28" rx="5"/><text class="ttl" x="1798" y="450" text-anchor="middle">tenant_auth_config</text><text class="col" x="1697" y="473">tenant_id <tspan class="key">PK</tspan></text><text class="typ" x="1899" y="473" text-anchor="end">uuid</text><text class="col" x="1697" y="491">oidc_issuer</text><text class="typ" x="1899" y="491" text-anchor="end">text</text><text class="col" x="1697" y="509">mfa_required</text><text class="typ" x="1899" y="509" text-anchor="end">boolean</text><text class="col" x="1697" y="527">updated_at</text><text class="typ" x="1899" y="527" text-anchor="end">timestamptz</text></g><g class="tbl" id="erd-users"><rect class="bx" x="2227" y="432" width="222" height="146" rx="5"/><rect class="hd" x="2227" y="432" width="222" height="28" rx="5"/><text class="ttl" x="2338" y="450" text-anchor="middle">users</text><text class="col" x="2237" y="473">id <tspan class="key">PK</tspan></text><text class="typ" x="2439" y="473" text-anchor="end">uuid</text><text class="col" x="2237" y="491">tenant_id <tspan class="key">FK</tspan></text><text class="typ" x="2439" y="491" text-anchor="end">uuid</text><text class="col" x="2237" y="509">email</text><text class="typ" x="2439" y="509" text-anchor="end">text</text><text class="col" x="2237" y="527">full_name</text><text class="typ" x="2439" y="527" text-anchor="end">varchar(255)</text><text class="col" x="2237" y="545">deleted_at</text><text class="typ" x="2439" y="545" text-anchor="end">timestamptz</text><text class="col" x="2237" y="563">created_at</text><text class="typ" x="2439" y="563" text-anchor="end">timestamptz</text></g><g class="tbl" id="erd-sessions"><rect class="bx" x="862" y="690" width="222" height="110" rx="5"/><rect class="hd" x="862" y="690" width="222" height="28" rx="5"/><text class="ttl" x="973" y="708" text-anchor="middle">sessions</text><text class="col" x="872" y="731">id <tspan class="key">PK</tspan></text><text class="typ" x="1074" y="731" text-anchor="end">uuid</text><text class="col" x="872" y="749">user_id <tspan class="key">FK</tspan></text><text class="typ" x="1074" y="749" text-anchor="end">uuid</text><text class="col" x="872" y="767">expires_at</text><text class="typ" x="1074" y="767" text-anchor="end">timestamp</text><text class="col" x="872" y="785">created_at</text><text class="typ" x="1074" y="785" text-anchor="end">timestamptz</text></g><g class="tbl" id="erd-role"><rect class="bx" x="1183" y="432" width="186" height="92" rx="5"/><rect class="hd" x="1183" y="432" width="186" height="28" rx="5"/><text class="ttl" x="1276" y="450" text-anchor="middle">role</text><text class="col" x="1193" y="473">id <tspan class="key">PK</tspan></text><text class="typ" x="1359" y="473" text-anchor="end">uuid</text><text class="col" x="1193" y="491">tenant_id <tspan class="key">FK</tspan></text><text class="typ" x="1359" y="491" text-anchor="end">uuid</text><text class="col" x="1193" y="509">name</text><text class="typ" x="1359" y="509" text-anchor="end">varchar(100)</text></g><g class="tbl" id="erd-permission"><rect class="bx" x="258" y="24" width="186" height="74" rx="5"/><rect class="hd" x="258" y="24" width="186" height="28" rx="5"/><text class="ttl" x="351" y="42" text-anchor="middle">permission</text><text class="col" x="268" y="65">id <tspan class="key">PK</tspan></text><text class="typ" x="434" y="65" text-anchor="end">uuid</text><text class="col" x="268" y="83">code</text><text class="typ" x="434" y="83" text-anchor="end">varchar(100)</text></g><g class="tbl" id="erd-role_permission"><rect class="bx" x="621" y="690" width="193" height="74" rx="5"/><rect class="hd" x="621" y="690" width="193" height="28" rx="5"/><text class="ttl" x="717.5" y="708" text-anchor="middle">role_permission</text><text class="col" x="631" y="731">role_id <tspan class="key">PK</tspan></text><text class="typ" x="804" y="731" text-anchor="end">uuid</text><text class="col" x="631" y="749">permission_id <tspan class="key">PK</tspan></text><text class="typ" x="804" y="749" text-anchor="end">uuid</text></g><g class="tbl" id="erd-user_role"><rect class="bx" x="1132" y="690" width="222" height="92" rx="5"/><rect class="hd" x="1132" y="690" width="222" height="28" rx="5"/><text class="ttl" x="1243" y="708" text-anchor="middle">user_role</text><text class="col" x="1142" y="731">user_id <tspan class="key">FK</tspan></text><text class="typ" x="1344" y="731" text-anchor="end">uuid</text><text class="col" x="1142" y="749">role_id <tspan class="key">FK</tspan></text><text class="typ" x="1344" y="749" text-anchor="end">uuid</text><text class="col" x="1142" y="767">granted_at</text><text class="typ" x="1344" y="767" text-anchor="end">timestamptz</text></g><g class="tbl" id="erd-github_app_config"><rect class="bx" x="301" y="690" width="272" height="218" rx="5"/><rect class="hd" x="301" y="690" width="272" height="28" rx="5"/><text class="ttl" x="437" y="708" text-anchor="middle">github_app_config</text><text class="col" x="311" y="731">id <tspan class="key">PK</tspan></text><text class="typ" x="563" y="731" text-anchor="end">uuid</text><text class="col" x="311" y="749">app_id</text><text class="typ" x="563" y="749" text-anchor="end">bigint</text><text class="col" x="311" y="767">app_slug</text><text class="typ" x="563" y="767" text-anchor="end">varchar(255)</text><text class="col" x="311" y="785">client_id</text><text class="typ" x="563" y="785" text-anchor="end">varchar(255)</text><text class="col" x="311" y="803">private_key_encrypted</text><text class="typ" x="563" y="803" text-anchor="end">text</text><text class="col" x="311" y="821">webhook_secret_encrypted</text><text class="typ" x="563" y="821" text-anchor="end">text</text><text class="col" x="311" y="839">status</text><text class="typ" x="563" y="839" text-anchor="end">varchar(20)</text><text class="col" x="311" y="857">created_by <tspan class="key">FK</tspan></text><text class="typ" x="563" y="857" text-anchor="end">uuid</text><text class="col" x="311" y="875">created_at</text><text class="typ" x="563" y="875" text-anchor="end">timestamptz</text><text class="col" x="311" y="893">updated_at</text><text class="typ" x="563" y="893" text-anchor="end">timestamptz</text></g><g class="tbl" id="erd-github_app_installation"><rect class="bx" x="564" y="432" width="294" height="182" rx="5"/><rect class="hd" x="564" y="432" width="294" height="28" rx="5"/><text class="ttl" x="711" y="450" text-anchor="middle">github_app_installation</text><text class="col" x="574" y="473">id <tspan class="key">PK</tspan></text><text class="typ" x="848" y="473" text-anchor="end">uuid</text><text class="col" x="574" y="491">tenant_id <tspan class="key">FK</tspan></text><text class="typ" x="848" y="491" text-anchor="end">uuid</text><text class="col" x="574" y="509">installation_id</text><text class="typ" x="848" y="509" text-anchor="end">bigint</text><text class="col" x="574" y="527">account_login</text><text class="typ" x="848" y="527" text-anchor="end">varchar(255)</text><text class="col" x="574" y="545">target_type</text><text class="typ" x="848" y="545" text-anchor="end">varchar(20)</text><text class="col" x="574" y="563">repository_selection</text><text class="typ" x="848" y="563" text-anchor="end">varchar(20)</text><text class="col" x="574" y="581">suspended_at</text><text class="typ" x="848" y="581" text-anchor="end">timestamptz</text><text class="col" x="574" y="599">created_at</text><text class="typ" x="848" y="599" text-anchor="end">timestamptz</text></g><g class="tbl" id="erd-webhook_delivery"><rect class="bx" x="1402" y="690" width="229" height="146" rx="5"/><rect class="hd" x="1402" y="690" width="229" height="28" rx="5"/><text class="ttl" x="1516.5" y="708" text-anchor="middle">webhook_delivery</text><text class="col" x="1412" y="731">id <tspan class="key">PK</tspan></text><text class="typ" x="1621" y="731" text-anchor="end">bigserial</text><text class="col" x="1412" y="749">installation_id <tspan class="key">FK</tspan></text><text class="typ" x="1621" y="749" text-anchor="end">uuid</text><text class="col" x="1412" y="767">delivery_guid</text><text class="typ" x="1621" y="767" text-anchor="end">uuid</text><text class="col" x="1412" y="785">event_type</text><text class="typ" x="1621" y="785" text-anchor="end">varchar(64)</text><text class="col" x="1412" y="803">payload</text><text class="typ" x="1621" y="803" text-anchor="end">jsonb</text><text class="col" x="1412" y="821">received_at</text><text class="typ" x="1621" y="821" text-anchor="end">timestamptz</text></g><g class="tbl" id="erd-service_request"><rect class="bx" x="1417" y="432" width="222" height="110" rx="5"/><rect class="hd" x="1417" y="432" width="222" height="28" rx="5"/><text class="ttl" x="1528" y="450" text-anchor="middle">service_request</text><text class="col" x="1427" y="473">id <tspan class="key">PK</tspan></text><text class="typ" x="1629" y="473" text-anchor="end">uuid</text><text class="col" x="1427" y="491">tenant_id <tspan class="key">FK</tspan></text><text class="typ" x="1629" y="491" text-anchor="end">uuid</text><text class="col" x="1427" y="509">title</text><text class="typ" x="1629" y="509" text-anchor="end">varchar(255)</text><text class="col" x="1427" y="527">created_at</text><text class="typ" x="1629" y="527" text-anchor="end">timestamptz</text></g><g class="tbl" id="erd-deployment"><rect class="bx" x="294" y="432" width="222" height="110" rx="5"/><rect class="hd" x="294" y="432" width="222" height="28" rx="5"/><text class="ttl" x="405" y="450" text-anchor="middle">deployment</text><text class="col" x="304" y="473">id <tspan class="key">PK</tspan></text><text class="typ" x="506" y="473" text-anchor="end">uuid</text><text class="col" x="304" y="491">tenant_id <tspan class="key">FK</tspan></text><text class="typ" x="506" y="491" text-anchor="end">uuid</text><text class="col" x="304" y="509">target</text><text class="typ" x="506" y="509" text-anchor="end">varchar(255)</text><text class="col" x="304" y="527">created_at</text><text class="typ" x="506" y="527" text-anchor="end">timestamptz</text></g><g class="tbl" id="erd-approval_request"><rect class="bx" x="24" y="690" width="229" height="182" rx="5"/><rect class="hd" x="24" y="690" width="229" height="28" rx="5"/><text class="ttl" x="138.5" y="708" text-anchor="middle">approval_request</text><text class="col" x="34" y="731">id <tspan class="key">PK</tspan></text><text class="typ" x="243" y="731" text-anchor="end">uuid</text><text class="col" x="34" y="749">tenant_id <tspan class="key">FK</tspan></text><text class="typ" x="243" y="749" text-anchor="end">uuid</text><text class="col" x="34" y="767">service_request_id <tspan class="key">FK</tspan></text><text class="typ" x="243" y="767" text-anchor="end">uuid</text><text class="col" x="34" y="785">deployment_id <tspan class="key">FK</tspan></text><text class="typ" x="243" y="785" text-anchor="end">uuid</text><text class="col" x="34" y="803">requested_by <tspan class="key">FK</tspan></text><text class="typ" x="243" y="803" text-anchor="end">uuid</text><text class="col" x="34" y="821">approved_by <tspan class="key">FK</tspan></text><text class="typ" x="243" y="821" text-anchor="end">uuid</text><text class="col" x="34" y="839">state</text><text class="typ" x="243" y="839" text-anchor="end">approval_state</text><text class="col" x="34" y="857">created_at</text><text class="typ" x="243" y="857" text-anchor="end">timestamptz</text></g><g class="tbl" id="erd-audit_event"><rect class="bx" x="24" y="432" width="222" height="164" rx="5"/><rect class="hd" x="24" y="432" width="222" height="28" rx="5"/><text class="ttl" x="135" y="450" text-anchor="middle">audit_event</text><text class="col" x="34" y="473">id <tspan class="key">PK</tspan></text><text class="typ" x="236" y="473" text-anchor="end">bigserial</text><text class="col" x="34" y="491">tenant_id <tspan class="key">FK</tspan></text><text class="typ" x="236" y="491" text-anchor="end">uuid</text><text class="col" x="34" y="509">actor_type</text><text class="typ" x="236" y="509" text-anchor="end">varchar(20)</text><text class="col" x="34" y="527">actor_id</text><text class="typ" x="236" y="527" text-anchor="end">uuid</text><text class="col" x="34" y="545">action</text><text class="typ" x="236" y="545" text-anchor="end">varchar(100)</text><text class="col" x="34" y="563">occurred_at</text><text class="typ" x="236" y="563" text-anchor="end">timestamp</text><text class="col" x="34" y="581">detail</text><text class="typ" x="236" y="581" text-anchor="end">jsonb</text></g><g class="tbl" id="erd-invoice_line"><rect class="bx" x="906" y="432" width="229" height="146" rx="5"/><rect class="hd" x="906" y="432" width="229" height="28" rx="5"/><text class="ttl" x="1020.5" y="450" text-anchor="middle">invoice_line</text><text class="col" x="916" y="473">id <tspan class="key">PK</tspan></text><text class="typ" x="1125" y="473" text-anchor="end">uuid</text><text class="col" x="916" y="491">tenant_id <tspan class="key">FK</tspan></text><text class="typ" x="1125" y="491" text-anchor="end">uuid</text><text class="col" x="916" y="509">description</text><text class="typ" x="1125" y="509" text-anchor="end">text</text><text class="col" x="916" y="527">amount</text><text class="typ" x="1125" y="527" text-anchor="end">double precision</text><text class="col" x="916" y="545">currency</text><text class="typ" x="1125" y="545" text-anchor="end">char(3)</text><text class="col" x="916" y="563">billed_at</text><text class="typ" x="1125" y="563" text-anchor="end">timestamptz</text></g><g class="tbl" id="erd-legacy_import_staging"><rect class="bx" x="24" y="24" width="186" height="92" rx="5"/><rect class="hd" x="24" y="24" width="186" height="28" rx="5"/><text class="ttl" x="117" y="42" text-anchor="middle">legacy_import_staging</text><text class="col" x="34" y="65">id <tspan class="key">PK</tspan></text><text class="typ" x="200" y="65" text-anchor="end">bigserial</text><text class="col" x="34" y="83">raw_row</text><text class="typ" x="200" y="83" text-anchor="end">text</text><text class="col" x="34" y="101">loaded</text><text class="typ" x="200" y="101" text-anchor="end">boolean</text></g><g class="edge" data-fk="tenant.provider_id" data-ends="one many"><path class="ln" d="M146,192 V154 H529 V116"/><g class="end c-many" transform="translate(146,192) rotate(-90)"><path d="M0,-6 L12,0 M0,0 L12,0 M0,6 L12,0"/></g><g class="end p-one" transform="translate(529,116) rotate(90)"><path d="M8,-6 L8,6"/></g><text class="lbl" x="151" y="172">provider_id</text></g><g class="edge" data-fk="tenant_settings.tenant_id" data-ends="one many"><path class="ln" d="M2068,432 V394 H64.66666666666666 V356"/><g class="end c-many" transform="translate(2068,432) rotate(-90)"><path d="M0,-6 L12,0 M0,0 L12,0 M0,6 L12,0"/></g><g class="end p-one" transform="translate(64.66666666666666,356) rotate(90)"><path d="M8,-6 L8,6"/></g><text class="lbl" x="2073" y="412">tenant_id</text></g><g class="edge" data-fk="tenant_auth_config.tenant_id" data-ends="one one"><path class="ln" d="M1798,432 V394 H105.33333333333333 V356"/><g class="end c-one" transform="translate(1798,432) rotate(-90)"><path d="M8,-6 L8,6"/></g><g class="end p-one" transform="translate(105.33333333333333,356) rotate(90)"><path d="M8,-6 L8,6"/></g><text class="lbl" x="1803" y="412">tenant_id</text></g><g class="edge" data-fk="users.tenant_id" data-ends="one many"><path class="ln" d="M2338,432 V394 H146 V356"/><g class="end c-many" transform="translate(2338,432) rotate(-90)"><path d="M0,-6 L12,0 M0,0 L12,0 M0,6 L12,0"/></g><g class="end p-one" transform="translate(146,356) rotate(90)"><path d="M8,-6 L8,6"/></g><text class="lbl" x="2343" y="412">tenant_id</text></g><g class="edge" data-fk="sessions.user_id" data-ends="one many"><path class="ln" d="M973,690 V652 H2264 V578"/><g class="end c-many" transform="translate(973,690) rotate(-90)"><path d="M0,-6 L12,0 M0,0 L12,0 M0,6 L12,0"/></g><g class="end p-one" transform="translate(2264,578) rotate(90)"><path d="M8,-6 L8,6"/></g><text class="lbl" x="978" y="670">user_id</text></g><g class="edge" data-fk="role.tenant_id" data-ends="one many"><path class="ln" d="M1276,432 V394 H186.66666666666666 V356"/><g class="end c-many" transform="translate(1276,432) rotate(-90)"><path d="M0,-6 L12,0 M0,0 L12,0 M0,6 L12,0"/></g><g class="end p-one" transform="translate(186.66666666666666,356) rotate(90)"><path d="M8,-6 L8,6"/></g><text class="lbl" x="1281" y="412">tenant_id</text></g><g class="edge" data-fk="role_permission.role_id" data-ends="one many"><path class="ln" d="M685.3333333333334,690 V652 H1214 V524"/><g class="end c-many" transform="translate(685.3333333333334,690) rotate(-90)"><path d="M0,-6 L12,0 M0,0 L12,0 M0,6 L12,0"/></g><g class="end p-one" transform="translate(1214,524) rotate(90)"><path d="M8,-6 L8,6"/></g><text class="lbl" x="690.3333333333334" y="670">role_id</text></g><g class="edge" data-fk="role_permission.permission_id" data-ends="one many"><path class="ln" d="M749.6666666666666,690 V652 H2475 V154 H289 V98"/><g class="end c-many" transform="translate(749.6666666666666,690) rotate(-90)"><path d="M0,-6 L12,0 M0,0 L12,0 M0,6 L12,0"/></g><g class="end p-one" transform="translate(289,98) rotate(90)"><path d="M8,-6 L8,6"/></g><text class="lbl" x="754.6666666666666" y="670">permission_id</text></g><g class="edge" data-fk="user_role.user_id" data-ends="one many"><path class="ln" d="M1206,690 V652 H2301 V578"/><g class="end c-many" transform="translate(1206,690) rotate(-90)"><path d="M0,-6 L12,0 M0,0 L12,0 M0,6 L12,0"/></g><g class="end p-one" transform="translate(2301,578) rotate(90)"><path d="M8,-6 L8,6"/></g><text class="lbl" x="1211" y="670">user_id</text></g><g class="edge" data-fk="user_role.role_id" data-ends="one many"><path class="ln" d="M1280,690 V652 H1245 V524"/><g class="end c-many" transform="translate(1280,690) rotate(-90)"><path d="M0,-6 L12,0 M0,0 L12,0 M0,6 L12,0"/></g><g class="end p-one" transform="translate(1245,524) rotate(90)"><path d="M8,-6 L8,6"/></g><text class="lbl" x="1285" y="670">role_id</text></g><g class="edge" data-fk="github_app_config.created_by" data-ends="zero-one many"><path class="ln" d="M437,690 V652 H2338 V578"/><g class="end c-many" transform="translate(437,690) rotate(-90)"><path d="M0,-6 L12,0 M0,0 L12,0 M0,6 L12,0"/></g><g class="end p-zero-one" transform="translate(2338,578) rotate(90)"><path d="M8,-6 L8,6"/><circle cx="18" cy="0" r="4"/></g><text class="lbl" x="442" y="670">created_by</text></g><g class="edge" data-fk="github_app_installation.tenant_id" data-ends="one many"><path class="ln" d="M711,432 V394 H227.33333333333334 V356"/><g class="end c-many" transform="translate(711,432) rotate(-90)"><path d="M0,-6 L12,0 M0,0 L12,0 M0,6 L12,0"/></g><g class="end p-one" transform="translate(227.33333333333334,356) rotate(90)"><path d="M8,-6 L8,6"/></g><text class="lbl" x="716" y="412">tenant_id</text></g><g class="edge" data-fk="webhook_delivery.installation_id" data-ends="one many"><path class="ln" d="M1516.5,690 V652 H613 V614"/><g class="end c-many" transform="translate(1516.5,690) rotate(-90)"><path d="M0,-6 L12,0 M0,0 L12,0 M0,6 L12,0"/></g><g class="end p-one" transform="translate(613,614) rotate(90)"><path d="M8,-6 L8,6"/></g><text class="lbl" x="1521.5" y="670">installation_id</text></g><g class="edge" data-fk="service_request.tenant_id" data-ends="one many"><path class="ln" d="M1528,432 V394 H64.66666666666666 V356"/><g class="end c-many" transform="translate(1528,432) rotate(-90)"><path d="M0,-6 L12,0 M0,0 L12,0 M0,6 L12,0"/></g><g class="end p-one" transform="translate(64.66666666666666,356) rotate(90)"><path d="M8,-6 L8,6"/></g><text class="lbl" x="1533" y="412">tenant_id</text></g><g class="edge" data-fk="deployment.tenant_id" data-ends="one many"><path class="ln" d="M405,432 V394 H105.33333333333333 V356"/><g class="end c-many" transform="translate(405,432) rotate(-90)"><path d="M0,-6 L12,0 M0,0 L12,0 M0,6 L12,0"/></g><g class="end p-one" transform="translate(105.33333333333333,356) rotate(90)"><path d="M8,-6 L8,6"/></g><text class="lbl" x="410" y="412">tenant_id</text></g><g class="edge" data-fk="approval_request.tenant_id" data-ends="one many"><path class="ln" d="M62.166666666666664,690 V652 H2487 V394 H146 V356"/><g class="end c-many" transform="translate(62.166666666666664,690) rotate(-90)"><path d="M0,-6 L12,0 M0,0 L12,0 M0,6 L12,0"/></g><g class="end p-one" transform="translate(146,356) rotate(90)"><path d="M8,-6 L8,6"/></g><text class="lbl" x="67.16666666666666" y="670">tenant_id</text></g><g class="edge" data-fk="approval_request.service_request_id" data-ends="zero-one many"><path class="ln" d="M100.33333333333333,690 V652 H1454 V542"/><g class="end c-many" transform="translate(100.33333333333333,690) rotate(-90)"><path d="M0,-6 L12,0 M0,0 L12,0 M0,6 L12,0"/></g><g class="end p-zero-one" transform="translate(1454,542) rotate(90)"><path d="M8,-6 L8,6"/><circle cx="18" cy="0" r="4"/></g><text class="lbl" x="105.33333333333333" y="646">service_request_id</text></g><g class="edge" data-fk="approval_request.deployment_id" data-ends="zero-one many"><path class="ln" d="M138.5,690 V652 H331 V542"/><g class="end c-many" transform="translate(138.5,690) rotate(-90)"><path d="M0,-6 L12,0 M0,0 L12,0 M0,6 L12,0"/></g><g class="end p-zero-one" transform="translate(331,542) rotate(90)"><path d="M8,-6 L8,6"/><circle cx="18" cy="0" r="4"/></g><text class="lbl" x="143.5" y="670">deployment_id</text></g><g class="edge" data-fk="approval_request.requested_by" data-ends="one many"><path class="ln" d="M176.66666666666666,690 V652 H2375 V578"/><g class="end c-many" transform="translate(176.66666666666666,690) rotate(-90)"><path d="M0,-6 L12,0 M0,0 L12,0 M0,6 L12,0"/></g><g class="end p-one" transform="translate(2375,578) rotate(90)"><path d="M8,-6 L8,6"/></g><text class="lbl" x="181.66666666666666" y="634">requested_by</text></g><g class="edge" data-fk="approval_request.approved_by" data-ends="zero-one many"><path class="ln" d="M214.83333333333334,690 V652 H2412 V578"/><g class="end c-many" transform="translate(214.83333333333334,690) rotate(-90)"><path d="M0,-6 L12,0 M0,0 L12,0 M0,6 L12,0"/></g><g class="end p-zero-one" transform="translate(2412,578) rotate(90)"><path d="M8,-6 L8,6"/><circle cx="18" cy="0" r="4"/></g><text class="lbl" x="219.83333333333334" y="646">approved_by</text></g><g class="edge" data-fk="audit_event.tenant_id" data-ends="one many"><path class="ln" d="M135,432 V394 H186.66666666666666 V356"/><g class="end c-many" transform="translate(135,432) rotate(-90)"><path d="M0,-6 L12,0 M0,0 L12,0 M0,6 L12,0"/></g><g class="end p-one" transform="translate(186.66666666666666,356) rotate(90)"><path d="M8,-6 L8,6"/></g><text class="lbl" x="140" y="412">tenant_id</text></g><g class="edge" data-fk="invoice_line.tenant_id" data-ends="one many"><path class="ln" d="M1020.5,432 V394 H227.33333333333334 V356"/><g class="end c-many" transform="translate(1020.5,432) rotate(-90)"><path d="M0,-6 L12,0 M0,0 L12,0 M0,6 L12,0"/></g><g class="end p-one" transform="translate(227.33333333333334,356) rotate(90)"><path d="M8,-6 L8,6"/></g><text class="lbl" x="1025.5" y="412">tenant_id</text></g></svg>
